HIERARCHY
ROOT Hips
{
  OFFSET -331.093 83.8371 -317.828
  CHANNELS 6 Xposition Yposition Zposition Zrotation Xrotation Yrotation
  JOINT LeftUpLeg
  {
    OFFSET 8.64259 1.95398 -2.38835
    CHANNELS 3 Zrotation Xrotation Yrotation
    JOINT LeftLeg
    {
      OFFSET 43.7702 0 0
      CHANNELS 3 Zrotation Xrotation Yrotation
      JOINT LeftFoot
      {
        OFFSET 40.6238 0 0
        CHANNELS 3 Zrotation Xrotation Yrotation
        JOINT LeftToeBase
        {
          OFFSET 12.7242 0 0
          CHANNELS 3 Zrotation Xrotation Yrotation
          End Site
          {
            OFFSET 0 0 0
          }
        }
      }
    }
  }
  JOINT RightUpLeg
  {
    OFFSET -8.2249 1.95398 -2.59336
    CHANNELS 3 Zrotation Xrotation Yrotation
    JOINT RightLeg
    {
      OFFSET 43.5653 0 0
      CHANNELS 3 Zrotation Xrotation Yrotation
      JOINT RightFoot
      {
        OFFSET 40.6238 0 0
        CHANNELS 3 Zrotation Xrotation Yrotation
        JOINT RightToeBase
        {
          OFFSET 12.7242 0 0
          CHANNELS 3 Zrotation Xrotation Yrotation
          End Site
          {
            OFFSET 0 0 0
          }
        }
      }
    }
  }
  JOINT Spine
  {
    OFFSET 0.165834 0.87714 6.61349
    CHANNELS 3 Zrotation Xrotation Yrotation
    JOINT Spine1
    {
      OFFSET 7.38963 1.71661e-005 0
      CHANNELS 3 Zrotation Xrotation Yrotation
      JOINT Spine2
      {
        OFFSET 11.9445 1.14441e-005 0
        CHANNELS 3 Zrotation Xrotation Yrotation
        JOINT Spine3
        {
          OFFSET 14.7254 4.19617e-005 0
          CHANNELS 3 Zrotation Xrotation Yrotation
          JOINT Spine4
          {
            OFFSET 10.9679 0 0
            CHANNELS 3 Zrotation Xrotation Yrotation
            JOINT RightShoulder
            {
              OFFSET 2.46616 -1.6653 3.69651
              CHANNELS 3 Zrotation Xrotation Yrotation
              JOINT RightArm
              {
                OFFSET 13.0012 0 0
                CHANNELS 3 Zrotation Xrotation Yrotation
                JOINT RightForeArm
                {
                  OFFSET 28.7848 1.62311e-005 0
                  CHANNELS 3 Zrotation Xrotation Yrotation
                  JOINT RightHand
                  {
                    OFFSET 26.5688 1.62095e-005 0
                    CHANNELS 3 Zrotation Xrotation Yrotation
                    End Site
                    {
                      OFFSET 0 0 0
                    }
                  }
                }
              }
            }
            JOINT LeftShoulder
            {
              OFFSET 2.38034 -1.29275 -3.7523
              CHANNELS 3 Zrotation Xrotation Yrotation
              JOINT LeftArm
              {
                OFFSET 16.3182 6.07031e-005 0
                CHANNELS 3 Zrotation Xrotation Yrotation
                JOINT LeftForeArm
                {
                  OFFSET 27.0901 0 0
                  CHANNELS 3 Zrotation Xrotation Yrotation
                  JOINT LeftHand
                  {
                    OFFSET 24.5451 1.51738e-005 0
                    CHANNELS 3 Zrotation Xrotation Yrotation
                    End Site
                    {
                      OFFSET 0 0 0
                    }
                  }
                }
              }
            }
            JOINT Neck
            {
              OFFSET 5.0226 -0.0266342 0
              CHANNELS 3 Zrotation Xrotation Yrotation
              JOINT Head
              {
                OFFSET 6.69364 2.86102e-005 0
                CHANNELS 3 Zrotation Xrotation Yrotation
                End Site
                {
                  OFFSET 0 0 0
                }
              }
            }
          }
        }
      }
    }
  }
}
MOTION
Frames:	15
Frame Time:	0.0416667
-52.0879 99.0936 46.5723 -81.4509 -86.2068 -81.5553 -174.558 4.41648 91.7213 -9.68701 3.25736 -0.644499 61.9191 1.25314 2.27185 30.0798 0.365633 -2.57826 171.089 3.60361 88.6973 -10.022 -5.69288 -1.78974 63.7792 -1.87219 -1.0345 29.6368 -0.361374 -2.75659 -0.0812133 6.83971 -90.0765 13.1944 -0.198051 -0.128424 1.52344 -0.2035 -0.119582 -21.0117 -0.150298 -0.182008 -0.999088 -0.150294 -0.182003 91.3801 -39.6235 -100.746 33.5469 -18.4633 -0.302719 -4.77401 -10.8288 -38.817 -7.6091 -0.618466 4.13503 -96.9273 -49.8792 68.9556 -22.2748 13.9995 -0.468514 4.84915 16.5794 -32.7029 13.2937 1.21947 5.13081 4.81476 0.846635 3.47401 -7.97317 0.223961 -0.375344 
-52.0857 99.0569 46.5897 -79.965 -86.2121 -80.0317 -174.514 4.52796 91.7673 -9.75592 3.3608 -0.701367 62.1842 1.55488 2.54829 29.6359 -0.0171629 -2.89278 171.099 3.60835 88.7422 -9.89906 -5.69632 -1.75054 63.9498 -1.98197 -1.09436 29.4754 -0.368069 -2.86417 -0.0828951 6.83253 -90.0851 13.2087 -0.205494 -0.144635 1.53775 -0.211651 -0.135457 -20.9974 -0.152519 -0.1997 -0.98477 -0.152521 -0.199705 91.4357 -39.4728 -100.689 33.695 -18.4236 -0.343015 -4.95126 -10.8321 -38.7998 -7.68245 -0.627243 4.19203 -96.9685 -49.9342 68.9132 -22.2584 13.954 -0.515584 4.86468 16.6674 -32.667 13.2247 1.22001 5.17783 4.91566 0.910697 3.35179 -8.06677 0.297852 -0.212571 
-52.1022 99.0778 46.5766 -80.351 -86.1957 -80.4273 -174.537 4.54333 91.7728 -9.78276 3.07436 -0.664135 62.0723 1.26678 2.11078 30.0481 0.334626 -2.61959 171.126 3.57433 88.757 -9.87906 -5.70004 -1.78255 63.9135 -1.96446 -1.08407 29.4671 -0.394562 -3.08017 -0.0777278 6.83358 -90.0777 13.2066 -0.191652 -0.131581 1.53563 -0.197246 -0.123024 -20.9995 -0.143248 -0.183087 -0.986903 -0.143247 -0.183093 91.4439 -39.5955 -100.642 33.5902 -18.462 -0.389724 -5.03258 -10.908 -38.7979 -7.36118 -0.597982 4.10133 -97.0131 -49.9176 68.8434 -22.1767 13.9565 -0.51823 4.77918 16.5371 -32.5751 13.1351 1.21565 5.18988 4.86505 0.854606 3.21777 -8.02181 0.25696 0.00473445 
-52.0811 99.0847 46.5727 -80.9668 -86.2442 -81.0479 -174.58 4.49889 91.7295 -9.82115 3.17202 -0.610273 62.1175 1.29172 2.08425 29.8559 0.237169 -2.44856 171.094 3.54343 88.7197 -9.9137 -5.78008 -1.78144 63.8205 -1.9199 -1.05955 29.5686 -0.385001 -2.96669 -0.0895605 6.83408 -90.0835 13.2017 -0.217961 -0.139855 1.53079 -0.223887 -0.130136 -21.0044 -0.165844 -0.19889 -0.99175 -0.165847 -0.198897 91.366 -39.511 -100.801 33.6435 -18.3664 -0.307684 -4.78497 -10.8809 -38.7074 -7.79395 -0.627764 4.04525 -97.1197 -50.1159 68.7519 -22.036 13.945 -0.408179 4.78669 16.4592 -32.686 13.2627 1.21073 5.08722 4.86336 0.960108 3.57546 -7.88688 0.3124 -0.315048 
-52.0938 99.0748 46.5869 -80.2047 -86.2542 -80.2603 -174.588 4.55338 91.7409 -9.7757 3.44136 -0.622641 61.839 1.30872 2.5337 30.4673 0.589132 -2.80066 171.058 3.59689 88.7304 -9.93215 -5.69261 -1.72037 63.9743 -2.013 -1.11135 29.4592 -0.335575 -2.60902 -0.0879543 6.8324 -90.0849 13.21 -0.215449 -0.143072 1.5391 -0.221537 -0.133462 -20.9961 -0.162485 -0.201211 -0.983437 -0.16249 -0.201216 91.3929 -39.4989 -100.757 33.6877 -18.359 -0.345108 -4.76753 -10.7653 -38.7033 -7.67837 -0.606848 3.82869 -97.0501 -50.0081 68.8185 -22.1148 13.9945 -0.478531 4.79057 16.5127 -32.6608 13.2695 1.2082 5.06415 4.9376 0.912689 3.48803 -8.00484 0.276276 -0.252542 
-52.0942 99.0702 46.5783 -80.7697 -86.2093 -80.902 -174.621 4.47741 91.6473 -9.73564 3.38507 -0.613059 62.0734 1.54815 2.67772 29.6209 0.079528 -2.411 171.057 3.62615 88.6697 -9.97157 -5.82325 -1.75946 63.782 -1.89438 -1.04651 29.7021 -0.383731 -2.91057 -0.0766437 6.82944 -90.0648 13.2004 -0.183371 -0.106924 1.52948 -0.187888 -0.0987605 -21.0057 -0.142759 -0.157096 -0.993038 -0.142759 -0.157095 91.3737 -39.6134 -100.759 33.7176 -18.3427 -0.280672 -4.72906 -10.8137 -38.7553 -7.95729 -0.62759 3.82747 -96.93 -49.8613 68.9466 -22.1757 14.0428 -0.523951 4.78302 16.5159 -32.6486 13.2139 1.19005 4.96624 4.87461 0.849355 3.30834 -7.93873 0.244982 -0.186677 
-52.1263 99.0809 46.5982 -81.8433 -86.2214 -82.0364 -174.529 4.26 91.6686 -9.41836 3.4394 -0.724547 61.6995 1.47956 2.91877 30.5465 0.412681 -3.80287 171.041 3.65764 88.6168 -10.2283 -5.78762 -1.78919 64.1074 -2.00627 -1.1106 29.4737 -0.371916 -2.89573 -0.0867617 6.82555 -90.0563 13.2022 -0.19932 -0.0879468 1.53124 -0.202997 -0.0790862 -21.004 -0.163674 -0.143782 -0.991329 -0.163666 -0.143779 91.2992 -39.6154 -100.888 33.6874 -18.3198 -0.290347 -4.62798 -10.8029 -38.6795 -7.77449 -0.609842 3.755 -97.1368 -50.0691 68.7123 -21.8964 14.0461 -0.248756 4.87704 16.395 -32.9217 13.0716 1.1955 5.09309 4.82232 0.965776 3.31222 -7.87305 0.351455 -0.0120763 
-52.1155 99.0835 46.5891 -81.4805 -86.2232 -81.6124 -174.564 4.37747 91.7033 -9.64054 3.31369 -0.652952 61.9902 1.40177 2.42066 29.7658 0.174148 -2.44625 171.096 3.59853 88.693 -10.0779 -5.7624 -1.80212 63.9875 -1.95913 -1.08339 29.3284 -0.358241 -2.83454 -0.0864228 6.82144 -90.0646 13.2175 -0.202631 -0.104018 1.54655 -0.207006 -0.0950105 -20.9887 -0.161999 -0.160106 -0.976012 -0.162008 -0.160115 91.3431 -39.5313 -100.834 33.8517 -18.2879 -0.233586 -4.73041 -10.7285 -38.7565 -7.55431 -0.5901 3.69 -97.0567 -50.0365 68.8184 -22.0224 13.9579 -0.333957 4.89652 16.5808 -32.7745 13.2064 1.18575 4.93943 4.76778 0.88578 3.41308 -7.91855 0.262113 -0.131179 
-52.1094 99.0775 46.5935 -80.8726 -86.2919 -80.9946 -174.617 4.42811 91.6873 -9.64358 3.37473 -0.604718 61.8215 1.36428 2.56619 30.2845 0.387229 -3.12136 171.1 3.59114 88.704 -10.0148 -5.53861 -1.79963 63.9684 -1.95315 -1.0796 29.3426 -0.314221 -2.47408 -0.0871803 6.818 -90.0698 13.2164 -0.206632 -0.114116 1.5455 -0.211447 -0.104921 -20.9897 -0.162781 -0.170938 -0.977069 -0.162781 -0.170946 91.4064 -39.4556 -100.745 33.8093 -18.3173 -0.335891 -4.75822 -10.9635 -38.7415 -7.5967 -0.596523 3.74031 -97.1137 -50.0306 68.7333 -21.945 14.1335 -0.423114 4.75603 16.4138 -32.7216 13.2638 1.1941 4.96536 4.83498 0.922116 3.39703 -7.96782 0.288735 0.0638469 
-52.1091 99.0818 46.5745 -81.6618 -86.322 -81.8214 -174.604 4.42086 91.6726 -9.78102 3.11687 -0.594298 62.1809 1.25326 1.79735 29.7183 0.271944 -1.85554 170.98 3.58563 88.6165 -10.0896 -5.86629 -1.71846 63.8516 -1.92756 -1.06569 29.8671 -0.425543 -3.18037 -0.0958171 6.81606 -90.0623 13.2121 -0.220153 -0.0973949 1.54119 -0.224223 -0.087609 -20.9941 -0.1807 -0.159053 -0.981404 -0.180703 -0.159059 91.3778 -39.5127 -100.78 33.7013 -18.3941 -0.428882 -4.82065 -11.2027 -38.7193 -7.46961 -0.594601 3.87008 -97.0227 -49.9683 68.8451 -22.003 14.146 -0.390687 4.76678 16.4192 -32.7718 13.1468 1.20297 5.10142 4.77526 0.950094 3.36176 -7.87602 0.327799 -0.000879816 
-52.1521 99.0721 46.611 -82.9557 -86.2169 -83.1593 -174.522 4.21456 91.6869 -9.54515 3.35196 -0.709348 61.8852 1.43629 2.57422 30.4109 0.453428 -3.21603 171.045 3.51003 88.6212 -10.124 -5.79189 -1.80582 64.1387 -2.03091 -1.12298 29.5617 -0.375275 -2.89226 -0.0705383 6.81613 -90.0637 13.1934 -0.170727 -0.106687 1.52246 -0.175255 -0.0990779 -21.0127 -0.130764 -0.153065 -1.00007 -0.130774 -0.153075 91.4338 -39.4697 -100.693 33.714 -18.3998 -0.451788 -4.86128 -11.3116 -38.5985 -7.26731 -0.56785 3.63018 -97.2331 -50.0433 68.5642 -21.9437 14.1473 -0.364236 4.83202 16.5273 -32.8388 13.2369 1.22114 5.17782 4.79228 0.918075 3.43171 -7.81179 0.285723 -0.0525591 
-52.1137 99.088 46.5988 -81.9947 -86.2541 -82.2236 -174.629 4.30413 91.5941 -9.5947 3.2763 -0.614633 61.9624 1.3487 2.29191 29.8089 0.186263 -2.52703 170.952 3.6292 88.5375 -10.1828 -5.97216 -1.73563 63.9496 -1.96052 -1.08473 29.5347 -0.374898 -2.89859 -0.0830431 6.81906 -90.0574 13.2165 -0.192417 -0.0910273 1.54552 -0.196245 -0.0824707 -20.9897 -0.156168 -0.144647 -0.977046 -0.156177 -0.144652 91.4102 -39.3786 -100.759 33.8689 -18.3712 -0.426005 -5.06703 -10.804 -38.6604 -7.44777 -0.587452 3.77558 -97.0868 -49.9545 68.7472 -22.135 13.9947 -0.321111 4.8549 16.5323 -32.8071 13.2046 1.20582 5.08651 4.6996 0.909191 3.40239 -7.79184 0.288438 -0.118826 
-52.1271 99.07 46.6048 -81.6295 -86.3127 -81.8461 -174.59 4.29042 91.6229 -9.52115 3.24665 -0.656978 62.0067 1.4692 2.43267 29.8936 0.146349 -2.97177 171.019 3.61081 88.5988 -10.1706 -5.70029 -1.77768 64.0497 -1.97674 -1.09392 29.572 -0.364439 -2.80085 -0.0809233 6.82887 -90.0592 13.217 -0.189108 -0.0949073 1.54612 -0.193097 -0.0864935 -20.9891 -0.151846 -0.14735 -0.976441 -0.151844 -0.147353 91.4552 -39.3556 -100.686 33.7355 -18.5814 -0.480722 -4.87187 -10.9482 -38.634 -7.49999 -0.59101 3.77016 -97.0887 -49.9098 68.7304 -22.1258 14.0563 -0.375181 4.87001 16.6372 -32.7428 13.2548 1.20878 5.07723 4.72933 0.897945 3.38202 -7.85947 0.282229 -0.15775 
-52.1418 99.0815 46.599 -81.5354 -86.3492 -81.7224 -174.561 4.35827 91.6749 -9.65542 3.31208 -0.67112 62.04 1.40226 2.29744 29.9506 0.291157 -2.50826 171.072 3.56454 88.6489 -10.0844 -5.75422 -1.80865 63.9061 -1.91063 -1.05677 29.6033 -0.399293 -3.06936 -0.0916564 6.82585 -90.0711 13.2221 -0.216096 -0.115174 1.55113 -0.220956 -0.10555 -20.9841 -0.171494 -0.174797 -0.971437 -0.171498 -0.1748 91.4401 -39.163 -100.764 33.8705 -18.5585 -0.446693 -4.81806 -10.6172 -38.6166 -7.78097 -0.61666 3.86811 -97.0167 -49.9166 68.8377 -22.2154 14.0508 -0.370028 4.8466 16.5968 -32.7833 13.1778 1.19794 5.04556 4.58236 0.920545 3.59911 -7.6508 0.280634 -0.37805 
-52.1731 99.065 46.6349 -82.3771 -86.2498 -82.5397 -174.546 4.31438 91.7244 -9.64159 3.30927 -0.665779 61.76 1.33632 2.66079 30.7243 0.628281 -3.40632 171.063 3.44526 88.6731 -9.97276 -5.73969 -1.78321 64.2482 -2.1153 -1.16806 28.9336 -0.314199 -2.60764 -0.0682393 6.83616 -90.0742 13.2014 -0.17115 -0.127102 1.5305 -0.17658 -0.119441 -21.0047 -0.125041 -0.172663 -0.992023 -0.125038 -0.172656 91.4816 -39.1904 -100.685 33.7926 -18.641 -0.520996 -4.49741 -10.4315 -38.4751 -8.07804 -0.617344 3.51349 -97.1572 -49.903 68.6276 -22.0727 14.2099 -0.412582 4.7868 16.5779 -32.7494 13.1938 1.18884 4.96947 4.78948 0.965201 3.69676 -7.92752 0.307713 -0.504203 
